<?xml version="1.0" encoding="utf-8"?>
<!-- Generator: Adobe Illustrator 16.0.0, SVG Export Plug-In . SVG Version: 6.00 Build 0)  -->
<!DOCTYPE svg PUBLIC "-//W3C//DTD SVG 1.1//EN" "http://www.w3.org/Graphics/SVG/1.1/DTD/svg11.dtd">
<svg version="1.1" id="Camada_1" xmlns="http://www.w3.org/2000/svg" xmlns:xlink="http://www.w3.org/1999/xlink" x="0px" y="0px"
	 width="200px" height="100px" viewBox="0 0 200 100" enable-background="new 0 0 200 100" xml:space="preserve">
<g>
	<g>
		<g>
			<path fill="#454545" d="M39.297,50.611c-1.275-0.085-0.902-1.58-1.836-2.106c-1.626,1.942-2.57,4.134-2.709,6.69
				c-0.033,0.652-0.061,1.438,0.389,1.745c3.004,2.052,0.357,2.831-0.861,3.831c-0.85,0.702-1.866,1.202-3.113,1.979
				c0.607,0,0.861,0.059,1.074-0.008c3.742-1.183,3.693-1.172,4.652,2.643c1.629,6.504-13.707,28-12.25,18.295
				c0.613-4.098-12.165-8.725-9.072-11.926c-0.203-0.111-0.406-0.223-0.609-0.334c-2.551,3.173-2.555,3.17-5.104,6.345
				c-1.991,2.479,0.934-1.11-1.075,1.354c-0.516,0.633-1.885,2.473-2.347,1.75c-0.58-0.906-0.621-1.105-0.139-1.709
				c4.026-5.024,1.464-1.959,5.636-6.861c1.86-2.188,1.31-5.1,3.046-7.454c1.675,1.71,2.751,5.735,6.273,2.676
				c0.906-0.788,2.586-1.929,1.946-3.424c-0.946-2.216-3.953-2.729-6.425-1.448c-0.724-3.894-3.505-5.901-10.988-4.03
				c1.247,2.117,3.737,2.556,5.631,4.384c-2.331-0.407-3.682-1.836-5.302-2.741c-0.742-0.416-1.207-1.85-2.397-0.879
				c-0.994,0.81-1.708,1.815-1.23,3.226c0.111,0.325,0.229,0.648,0.379,1.077c-2.614-1.994-2.73-4.591-0.305-6.74
				c1.904-1.688,4.213-2.459,6.727-2.835c3.867-0.577,7.651-1.438,10.544-4.412c0.979-1.009,1.751-2.101,1.943-3.599
				c-3.659,4.898-9.08,6.148-14.533,7.253c-2.718,0.55-5.191,1.422-6.991,3.927c-0.035-3.65,1.746-5.673,5.245-6.367
				c2.9-0.576,5.969-0.709,8.295-2.993c-3.69,1.434-7.497,2.204-11.529,2.208c1.741-0.542,2.846-1.635,3.341-3.323
				c-0.031,0.428-0.249,0.989-0.056,1.255c0.438,0.61,0.912,0.043,1.302-0.223c1.536-1.046,2.233-2.683,2.871-4.319
				c1.157-2.967,2.894-5.12,6.338-5.566c1.404-0.182,2.874-0.745,3.531-2.313c-2.015,0.964-4.066,1.745-6.241,1.976
				c-2.511,0.265-3.463,2.874-5.672,3.522c1.533-1.53,1.944-3.724,3.184-5.417c1.425-1.945,3.462-3.208,6.095-4.944
				c-1.957,0.045-2.903,0.854-4.115,1.438c0.39-2.552,2.191-3.458,4.763-4.554c-1.667-0.088-2.552-0.135-3.58-0.189
				c5.195-3.835,6.823-10.625,12.477-13.627c-0.179,1.376,1.717,0.864,2.592,1.693c1.841,1.741,3.028,3.889,4.489,5.833
				c2.089,2.781,1.809,4.543-0.482,7.254c-0.859,1.019-0.033,1.767,0.305,2.629c0.464,1.189,1.83,1.308,2.502,2.228
				c-1.51,0.101-1.176,1.483-1.229,2.216c-0.076,1.078,1.086,0.78,1.812,0.901c0.795,0.132,1.759-0.468,2.355,0.531l0.057-0.063
				c-1.217,0.125-2.537-0.487-3.826,0.431c0.834,0.972,2.033,0.249,2.757,0.934c-0.791,0.652-2.562-0.492-2.58,0.859
				c-0.021,1.418,0.312,2.66-1.106,3.593c-0.181,0.12-0.318,0.908,0.358,0.983c3.031,0.338,1.19,1.628,0.457,2.546
				c-3.472,4.337-7.003,8.625-10.479,12.958c-0.39,0.483-1.184,0.868-0.667,2.102c2.328-0.291,4.795-0.388,7.152-0.945
				c2.813-0.667,3.534-2.01,3.206-4.91c-0.124-1.08,0.34-2.097,0.381-3.117c0.115-2.898,3.145-4.52,3.157-7.55
				C38.018,46.965,38.651,48.791,39.297,50.611z M25.685,25.374c0.11-1.656-1.013-1.992-2.302-2.17
				c-0.447-0.062-1.097-0.151-1.076,0.37c0.034,0.978,0.026,2.273,0.611,2.84c0.933,0.902,1.238-0.872,2.067-0.999
				c0.262-0.041,0.524-0.078,0.788-0.116c-2.706,2.093-2.655,4.79-1.682,7.721c0.08-2.563,0.98-4.727,2.845-6.423
				c1.592,1.698,2.65,3.662,2.758,6.083c0.561-2.568,1.344-5.136-1.48-6.906c1.262-0.797,1.547,1.407,2.34,0.516
				c0.438-0.493,0.521-1.75,0.203-2.382c-0.779-1.557-2.019,0.096-3.033,0.042c-0.079-0.946,0.504-0.988,0.982-1.193
				c0.721-0.309,2.007-0.176,1.551-1.571c-0.361-1.101-1.229-1.446-2.331-1.117c-0.802,0.239-1.5,0.098-2.286-0.225
				c-1.287-0.528-2.34,0.084-2.692,1.338c-0.387,1.377,1.03,1.293,1.717,1.422C26.707,22.987,26.512,24.017,25.685,25.374z
				 M29.85,41.353c-0.459,0.848-0.69,1.129-0.774,1.45c-1.673,6.275-5.582,10.744-11.271,13.648
				c-1.43,0.729-0.965,1.451-0.465,2.246c1.246,1.979,3.645,2.076,5.11,0.273c1.784-2.193,3.593-4.367,5.333-6.596
				c0.683-0.873,1.661-1.605,2.038-3.238c-1.842,1.732-3.254,3.201-4.815,4.49c-1.557,1.285-3.088,2.686-5.144,3.203
				C24.623,52.822,29.424,48.906,29.85,41.353z"/>
			<path fill="#454545" d="M41.942,38.434c-1.205-0.241-0.285,0.946-0.848,1.195c-0.828-0.85-1.562-1.774-1.799-3.007l-0.059,0.063
				c1.012,0.237,1.121-0.368,1.06-1.133c2.304-1.006,3.612-3.149,4.562-5.133c0.82-1.713-1.418-1.127-2.289-1.313
				c-0.984-0.211-2.176,0.259-2.594-1.14c-0.398-1.339-0.285-2.608,0.641-3.74c0.705-0.859,1.727-1.202,2.662-1.676
				c0.94-0.477,1.934-0.846,2.875-1.319c0.383-0.193,1.021-0.612,0.978-0.806c-0.817-3.739,3.128-1.67,4.002-3.349
				c-0.087,2.426-1.448,3.995-3.334,5.203c-0.663,0.426-1.407,0.729-2.095,1.12c-1.139,0.647-2.869,1.276-2.514,2.675
				c0.326,1.292,2.297,1.293,3.504,1.935c0.846,0.45,1.188-0.562,1.527-1.098c1.446-2.293,3.495-4.192,4.448-6.814
				c0.282-0.781,2.308-2.608,3.033-3.021c-0.045,0.979-1.257,3.31-1.81,3.821c-1.645,1.522-2.541,3.6-4.018,5.214
				c-1.762,1.927-1.641,3.329,0.303,5.174c1.619,1.537,2.17,0.907,2.674-0.619c0.355-1.079,0.535-2.23,0.666-3.365
				c0.301-2.618,1.586-4.576,4.104-6.327c-0.142,1.771-0.544,3.204-0.19,4.618c0.074,0.292,0.289,0.875-0.217,0.781
				c-2.822-0.522-1.857,1.746-2.166,2.96c-0.299,1.186-0.205,2.47-0.484,3.663c-0.387,1.64-1.584,2.449-3.237,2.659
				c-1.53,0.194-1.772-0.766-2.203-1.959c-1.071-2.97-2.013-3.09-3.845-0.505C44.085,34.874,42.139,36.109,41.942,38.434z"/>
			<path fill="#454545" d="M40.956,53.773c1.852,0.909,3.48,0.333,4.874-0.917c1.431-1.284,0.925-2.835,0.401-4.406
				c-0.521-1.565-1.4-2.834-2.633-3.918c0.687-0.578,1.084,0.5,1.805,0.183c-0.248-1.372-1.846-2.129-1.797-3.635
				c2.703,3.193,5.016,6.504,3.838,11.064c-0.562,2.173-2.519,2.201-4.092,2.741C42.36,55.227,41.227,55.271,40.956,53.773z"/>
		</g>
	</g>
	<g>
		<path fill="#454545" d="M50.606,57.729v-7.441c1.705,0,2.557-0.651,2.557-1.952c0-1.193-0.65-1.79-1.953-1.79
			c-1.317,0-1.975,0.818-1.975,2.455v18.541h-8.439v-17.67c0-1.829,0.184-3.33,0.551-4.499c0.368-1.172,0.995-2.264,1.881-3.274
			c0.998-1.124,2.245-2.01,3.741-2.66c1.497-0.652,3.042-0.978,4.636-0.978c2.882,0,5.303,0.97,7.264,2.91
			c1.961,1.939,2.941,4.344,2.941,7.213c0,2.784-0.88,5.043-2.64,6.776c-1.607,1.594-4.033,2.391-7.275,2.391L50.606,57.729z"/>
		<path fill="#454545" d="M72.89,46.795v20.744H64.45V39.168h10.83c3.297,0,5.854,0.816,7.67,2.451
			c2.022,1.83,3.034,4.15,3.034,6.964c0,2.868-1.254,5.286-3.762,7.254l4.863,11.701h-8.854l-4.095-9.145v-7.297h0.665
			c1.774,0,2.661-0.762,2.661-2.286c0-1.345-1.026-2.017-3.077-2.017H72.89z"/>
		<path fill="#454545" d="M102.51,38.46c4.018,0,7.465,1.462,10.342,4.386c2.875,2.924,4.312,6.423,4.312,10.498
			c0,4.143-1.447,7.662-4.344,10.559s-6.416,4.344-10.559,4.344c-4.117,0-7.629-1.453-10.54-4.363
			c-2.91-2.91-4.364-6.424-4.364-10.539c0-4.158,1.465-7.677,4.395-10.56C94.684,39.902,98.269,38.46,102.51,38.46z M102.26,46.817
			c-1.732,0-3.209,0.638-4.427,1.911c-1.221,1.276-1.829,2.813-1.829,4.616c0,1.801,0.612,3.338,1.838,4.613
			c1.226,1.275,2.699,1.912,4.417,1.912c1.746,0,3.225-0.635,4.438-1.902c1.211-1.268,1.816-2.809,1.816-4.625
			c0-1.814-0.605-3.357-1.816-4.625C105.484,47.451,104.006,46.817,102.26,46.817z"/>
		<path fill="#454545" d="M132.629,47.315v20.224h-8.439V47.315h-6.465v-8.146h21.348v8.146H132.629z"/>
		<path fill="#454545" d="M156.471,50.203v6.32h-5.508c-0.748,0-1.279,0.109-1.59,0.332c-0.312,0.221-0.469,0.598-0.469,1.125
			c0,0.596,0.16,0.986,0.479,1.174c0.32,0.188,0.971,0.279,1.955,0.279h5.674v8.107h-6.631c-3.117,0-5.5-0.744-7.152-2.234
			c-1.646-1.49-2.473-3.641-2.473-6.455V47.73c0-2.716,0.779-4.822,2.34-6.319c1.559-1.496,3.752-2.244,6.578-2.244h7.338v8.147
			h-5.385c-1.453,0-2.182,0.472-2.182,1.414c0,0.554,0.174,0.938,0.52,1.153c0.348,0.215,0.963,0.322,1.85,0.322H156.471
			L156.471,50.203z"/>
		<path fill="#454545" d="M180.936,39.168v18.394c0,3.242-0.965,5.834-2.898,7.773c-1.932,1.939-4.508,2.91-7.723,2.91
			c-3.201,0-5.65-0.943-7.346-2.828c-1.699-1.883-2.549-4.592-2.549-8.125V39.168h8.439v18.103c0,1.732,0.617,2.6,1.85,2.6
			c1.191,0,1.789-0.867,1.789-2.6V39.168H180.936z"/>
		<path fill="#454545" d="M198.541,39.042v8.085c-0.609-0.207-1.08-0.311-1.412-0.311c-0.639,0-1.186,0.235-1.641,0.706
			c-0.457,0.471-0.688,1.04-0.688,1.705c0,0.568,0.25,1.288,0.748,2.163l0.645,1.121c1.164,2.025,1.748,3.979,1.748,5.861
			c0,2.758-0.982,5.094-2.941,7.006c-1.961,1.912-4.355,2.867-7.182,2.867c-1.359,0-2.701-0.312-4.033-0.936V59.1
			c0.805,0.514,1.52,0.77,2.143,0.77c0.732,0,1.348-0.213,1.838-0.635c0.492-0.42,0.738-0.951,0.738-1.59
			c0-0.414-0.395-1.324-1.186-2.723c-1.26-2.217-1.891-4.436-1.891-6.651c0-2.675,0.951-4.979,2.857-6.912
			c1.908-1.933,4.182-2.898,6.83-2.898C196.277,38.46,197.42,38.655,198.541,39.042z"/>
	</g>
</g>
<g>
	<g>
		<g>
			<path fill="#FFFFFF" d="M39.047,50.258c-1.275-0.085-0.902-1.58-1.836-2.106c-1.626,1.942-2.57,4.134-2.709,6.69
				c-0.033,0.652-0.061,1.438,0.389,1.745c3.004,2.052,0.357,2.831-0.861,3.831c-0.85,0.702-1.866,1.202-3.113,1.979
				c0.607,0,0.861,0.059,1.074-0.008c3.742-1.183,3.693-1.172,4.652,2.643c1.629,6.504-13.707,28-12.25,18.295
				c0.613-4.098-12.165-8.725-9.072-11.926c-0.203-0.111-0.406-0.223-0.609-0.334c-2.551,3.173-2.555,3.17-5.104,6.345
				c-1.991,2.479,0.934-1.11-1.075,1.354c-0.516,0.633-1.885,2.473-2.347,1.75c-0.58-0.906-0.621-1.105-0.139-1.709
				c4.026-5.024,1.464-1.959,5.636-6.861c1.86-2.188,1.31-5.1,3.046-7.454c1.675,1.71,2.751,5.735,6.273,2.676
				c0.906-0.788,2.586-1.929,1.946-3.424c-0.946-2.216-3.953-2.729-6.425-1.448c-0.724-3.894-3.505-5.901-10.988-4.03
				c1.247,2.117,3.737,2.556,5.631,4.384c-2.331-0.407-3.682-1.836-5.302-2.741c-0.742-0.416-1.207-1.85-2.397-0.879
				c-0.994,0.81-1.708,1.815-1.23,3.226c0.111,0.325,0.229,0.648,0.379,1.077c-2.614-1.994-2.73-4.591-0.305-6.74
				c1.904-1.688,4.213-2.459,6.727-2.835c3.867-0.577,7.651-1.438,10.544-4.412c0.979-1.009,1.751-2.101,1.943-3.599
				c-3.659,4.898-9.08,6.148-14.533,7.253C4.273,53.549,1.8,54.421,0,56.926c-0.035-3.65,1.746-5.673,5.245-6.367
				c2.9-0.576,5.969-0.708,8.295-2.993C9.851,49,6.043,49.77,2.012,49.774c1.741-0.542,2.846-1.636,3.341-3.324
				c-0.031,0.428-0.249,0.989-0.056,1.255c0.438,0.61,0.912,0.043,1.302-0.223c1.536-1.046,2.233-2.683,2.871-4.319
				c1.157-2.967,2.894-5.12,6.338-5.566c1.404-0.182,2.874-0.745,3.531-2.313c-2.015,0.964-4.066,1.745-6.241,1.976
				c-2.511,0.265-3.463,2.874-5.672,3.522c1.533-1.53,1.944-3.724,3.184-5.417c1.425-1.945,3.462-3.208,6.095-4.944
				c-1.957,0.045-2.903,0.854-4.115,1.438c0.39-2.552,2.191-3.458,4.763-4.554c-1.667-0.088-2.552-0.135-3.58-0.189
				c5.195-3.835,6.823-10.625,12.477-13.627c-0.179,1.376,1.717,0.864,2.592,1.693c1.841,1.741,3.028,3.889,4.489,5.833
				c2.089,2.781,1.809,4.543-0.482,7.254c-0.859,1.019-0.033,1.767,0.305,2.629c0.464,1.189,1.83,1.308,2.502,2.228
				c-1.51,0.101-1.176,1.483-1.229,2.216c-0.076,1.078,1.086,0.78,1.812,0.901c0.795,0.132,1.759-0.468,2.355,0.531l0.057-0.063
				c-1.217,0.125-2.537-0.487-3.826,0.431c0.834,0.972,2.033,0.249,2.757,0.934c-0.791,0.652-2.562-0.492-2.58,0.859
				c-0.021,1.418,0.312,2.66-1.106,3.593c-0.181,0.12-0.318,0.908,0.358,0.983c3.031,0.338,1.19,1.628,0.457,2.546
				c-3.472,4.337-7.003,8.625-10.479,12.958c-0.39,0.483-1.184,0.868-0.667,2.102c2.328-0.291,4.795-0.388,7.152-0.945
				c2.813-0.667,3.534-2.01,3.206-4.91c-0.124-1.08,0.34-2.097,0.381-3.117c0.115-2.898,3.145-4.52,3.157-7.55
				C37.768,46.612,38.401,48.437,39.047,50.258z M25.435,25.02c0.11-1.656-1.013-1.992-2.302-2.17
				c-0.447-0.062-1.097-0.151-1.076,0.37c0.034,0.978,0.026,2.273,0.611,2.84c0.933,0.902,1.238-0.872,2.067-0.999
				c0.262-0.041,0.524-0.078,0.788-0.116c-2.706,2.093-2.655,4.79-1.682,7.721c0.08-2.563,0.98-4.727,2.845-6.423
				c1.592,1.698,2.65,3.662,2.758,6.083c0.561-2.568,1.344-5.136-1.48-6.906c1.262-0.797,1.547,1.407,2.34,0.516
				c0.438-0.493,0.521-1.75,0.203-2.382c-0.779-1.557-2.019,0.096-3.033,0.042c-0.079-0.946,0.504-0.988,0.982-1.193
				c0.721-0.309,2.007-0.176,1.551-1.571c-0.361-1.101-1.229-1.446-2.331-1.117c-0.802,0.239-1.5,0.098-2.286-0.225
				c-1.287-0.528-2.34,0.084-2.692,1.338c-0.387,1.377,1.03,1.293,1.717,1.422C26.457,22.633,26.262,23.663,25.435,25.02z
				 M29.6,40.999c-0.459,0.848-0.69,1.129-0.774,1.45c-1.673,6.275-5.582,10.744-11.271,13.648c-1.43,0.729-0.965,1.451-0.465,2.246
				c1.246,1.979,3.645,2.076,5.11,0.273c1.784-2.193,3.593-4.367,5.333-6.596c0.683-0.873,1.661-1.605,2.038-3.238
				c-1.842,1.732-3.254,3.201-4.815,4.49c-1.557,1.285-3.088,2.686-5.144,3.203C24.373,52.469,29.174,48.552,29.6,40.999z"/>
			<path fill="#FFFFFF" d="M41.692,38.08c-1.205-0.241-0.285,0.946-0.848,1.195c-0.828-0.85-1.562-1.774-1.799-3.007l-0.059,0.063
				c1.012,0.237,1.121-0.368,1.06-1.133c2.304-1.006,3.612-3.149,4.562-5.133c0.82-1.713-1.418-1.127-2.289-1.313
				c-0.984-0.211-2.176,0.259-2.594-1.14c-0.398-1.339-0.285-2.608,0.641-3.74c0.705-0.859,1.727-1.202,2.662-1.676
				c0.94-0.477,1.934-0.846,2.875-1.319c0.383-0.193,1.021-0.612,0.978-0.806c-0.817-3.739,3.128-1.67,4.002-3.349
				c-0.087,2.426-1.448,3.995-3.334,5.203c-0.663,0.426-1.407,0.729-2.095,1.12c-1.139,0.647-2.869,1.276-2.514,2.675
				c0.326,1.292,2.297,1.293,3.504,1.935c0.846,0.45,1.188-0.562,1.527-1.098c1.446-2.293,3.495-4.192,4.448-6.814
				c0.282-0.781,2.308-2.608,3.033-3.021c-0.045,0.979-1.257,3.31-1.81,3.821c-1.645,1.522-2.541,3.6-4.018,5.214
				c-1.762,1.927-1.641,3.329,0.303,5.174c1.619,1.537,2.17,0.907,2.674-0.619c0.355-1.079,0.535-2.23,0.666-3.365
				c0.301-2.618,1.586-4.576,4.104-6.327c-0.142,1.771-0.544,3.204-0.19,4.618c0.074,0.292,0.289,0.875-0.217,0.781
				c-2.822-0.522-1.857,1.746-2.166,2.96c-0.299,1.186-0.205,2.47-0.484,3.663c-0.387,1.64-1.584,2.449-3.237,2.659
				c-1.53,0.194-1.772-0.766-2.203-1.959c-1.071-2.97-2.013-3.09-3.845-0.505C43.835,34.52,41.889,35.756,41.692,38.08z"/>
			<path fill="#FFFFFF" d="M40.706,53.42c1.852,0.909,3.48,0.333,4.874-0.917c1.431-1.284,0.925-2.835,0.401-4.406
				c-0.521-1.565-1.4-2.834-2.633-3.918c0.687-0.578,1.084,0.5,1.805,0.183c-0.248-1.372-1.846-2.129-1.797-3.635
				c2.703,3.193,5.016,6.504,3.838,11.064c-0.562,2.173-2.519,2.201-4.092,2.741C42.11,54.873,40.977,54.917,40.706,53.42z"/>
		</g>
	</g>
	<g>
		<path fill="#FFFFFF" d="M50.356,57.375v-7.442c1.705,0,2.557-0.65,2.557-1.951c0-1.193-0.65-1.79-1.953-1.79
			c-1.317,0-1.975,0.818-1.975,2.455v18.541h-8.439V49.518c0-1.829,0.184-3.33,0.551-4.499c0.368-1.172,0.995-2.264,1.881-3.274
			c0.998-1.124,2.245-2.01,3.741-2.66c1.497-0.652,3.042-0.978,4.636-0.978c2.882,0,5.303,0.97,7.264,2.91
			c1.961,1.939,2.941,4.344,2.941,7.213c0,2.784-0.88,5.043-2.64,6.776c-1.607,1.594-4.033,2.391-7.275,2.391L50.356,57.375z"/>
		<path fill="#FFFFFF" d="M72.64,46.442v20.744H64.2V38.815h10.83c3.297,0,5.854,0.816,7.67,2.451
			c2.022,1.83,3.034,4.15,3.034,6.964c0,2.868-1.254,5.286-3.762,7.254l4.863,11.701h-8.854l-4.095-9.145v-7.297h0.665
			c1.774,0,2.661-0.762,2.661-2.286c0-1.345-1.026-2.017-3.077-2.017H72.64z"/>
		<path fill="#FFFFFF" d="M102.26,38.107c4.018,0,7.465,1.462,10.342,4.386c2.875,2.924,4.312,6.423,4.312,10.498
			c0,4.143-1.447,7.662-4.344,10.559s-6.416,4.344-10.559,4.344c-4.117,0-7.629-1.453-10.54-4.363
			c-2.91-2.91-4.364-6.424-4.364-10.539c0-4.158,1.465-7.677,4.395-10.56C94.434,39.548,98.019,38.107,102.26,38.107z
			 M102.01,46.463c-1.732,0-3.209,0.638-4.427,1.911c-1.221,1.276-1.829,2.813-1.829,4.616c0,1.801,0.612,3.338,1.838,4.613
			c1.226,1.275,2.699,1.912,4.417,1.912c1.746,0,3.225-0.635,4.438-1.902c1.211-1.268,1.816-2.809,1.816-4.625
			c0-1.814-0.605-3.358-1.816-4.625C105.234,47.097,103.756,46.463,102.01,46.463z"/>
		<path fill="#FFFFFF" d="M132.379,46.961v20.224h-8.439V46.961h-6.465v-8.146h21.348v8.146H132.379z"/>
		<path fill="#FFFFFF" d="M156.221,49.85v6.32h-5.508c-0.748,0-1.279,0.109-1.59,0.332c-0.312,0.221-0.469,0.598-0.469,1.125
			c0,0.596,0.16,0.986,0.479,1.174c0.32,0.188,0.971,0.279,1.955,0.279h5.674v8.107h-6.631c-3.117,0-5.5-0.744-7.152-2.234
			c-1.646-1.49-2.473-3.641-2.473-6.455V47.376c0-2.716,0.779-4.822,2.34-6.319c1.559-1.496,3.752-2.244,6.578-2.244h7.338v8.147
			h-5.385c-1.453,0-2.182,0.472-2.182,1.414c0,0.554,0.174,0.938,0.52,1.153c0.348,0.215,0.963,0.322,1.85,0.322H156.221
			L156.221,49.85z"/>
		<path fill="#FFFFFF" d="M180.686,38.815v18.394c0,3.242-0.965,5.834-2.898,7.773c-1.932,1.939-4.508,2.91-7.723,2.91
			c-3.201,0-5.65-0.943-7.346-2.828c-1.699-1.883-2.549-4.592-2.549-8.125V38.815h8.439v18.103c0,1.732,0.617,2.6,1.85,2.6
			c1.191,0,1.789-0.867,1.789-2.6V38.815H180.686z"/>
		<path fill="#FFFFFF" d="M198.291,38.689v8.085c-0.609-0.207-1.08-0.311-1.412-0.311c-0.639,0-1.186,0.235-1.641,0.706
			c-0.457,0.471-0.688,1.04-0.688,1.705c0,0.568,0.25,1.288,0.748,2.163l0.645,1.121c1.164,2.025,1.748,3.979,1.748,5.861
			c0,2.758-0.982,5.094-2.941,7.006c-1.961,1.912-4.355,2.867-7.182,2.867c-1.359,0-2.701-0.312-4.033-0.936v-8.211
			c0.805,0.514,1.52,0.77,2.143,0.77c0.732,0,1.348-0.213,1.838-0.635c0.492-0.42,0.738-0.951,0.738-1.59
			c0-0.414-0.395-1.324-1.186-2.723c-1.26-2.217-1.891-4.435-1.891-6.651c0-2.675,0.951-4.979,2.857-6.912
			c1.908-1.933,4.182-2.898,6.83-2.898C196.027,38.107,197.17,38.301,198.291,38.689z"/>
	</g>
</g>
</svg>
